<mxfile host="app.diagrams.net" modified="2024-04-05T15:05:25.932Z" agent="Mozilla/5.0 (X11; Linux x86_64) AppleWebKit/537.36 (KHTML, like Gecko) Chrome/123.0.0.0 Safari/537.36" etag="DfW6DTDimTCIc9bKjSoh" version="24.0.7" type="device">
  <diagram name="Page-1" id="IMYW9T0qX2z6C_wmKS9m">
    <mxGraphModel dx="819" dy="433" grid="1" gridSize="10" guides="1" tooltips="1" connect="1" arrows="1" fold="1" page="1" pageScale="1" pageWidth="827" pageHeight="1169" math="0" shadow="0">
      <root>
        <mxCell id="0" />
        <mxCell id="1" parent="0" />
        <mxCell id="G2qe3NF_fQgNYZd1ESjh-19" value="" style="rounded=0;whiteSpace=wrap;html=1;movable=1;resizable=1;rotatable=1;deletable=1;editable=1;locked=0;connectable=1;" vertex="1" parent="1">
          <mxGeometry x="380" y="4" width="300" height="380" as="geometry" />
        </mxCell>
        <mxCell id="G2qe3NF_fQgNYZd1ESjh-17" value="" style="group;movable=1;resizable=1;rotatable=1;deletable=1;editable=1;locked=0;connectable=1;" vertex="1" connectable="0" parent="1">
          <mxGeometry x="78" y="4" width="292" height="396" as="geometry" />
        </mxCell>
        <mxCell id="G2qe3NF_fQgNYZd1ESjh-5" value="" style="rounded=0;whiteSpace=wrap;html=1;fillColor=none;" vertex="1" parent="G2qe3NF_fQgNYZd1ESjh-17">
          <mxGeometry width="292" height="380" as="geometry" />
        </mxCell>
        <mxCell id="9AVNeTMM8HrBvIerpo5E-22" style="edgeStyle=orthogonalEdgeStyle;rounded=0;orthogonalLoop=1;jettySize=auto;html=1;exitX=0.25;exitY=1;exitDx=0;exitDy=0;entryX=0.5;entryY=0;entryDx=0;entryDy=0;shape=link;" parent="G2qe3NF_fQgNYZd1ESjh-17" source="9AVNeTMM8HrBvIerpo5E-2" target="9AVNeTMM8HrBvIerpo5E-3" edge="1">
          <mxGeometry relative="1" as="geometry" />
        </mxCell>
        <mxCell id="9AVNeTMM8HrBvIerpo5E-23" style="edgeStyle=orthogonalEdgeStyle;rounded=0;orthogonalLoop=1;jettySize=auto;html=1;exitX=0.75;exitY=1;exitDx=0;exitDy=0;entryX=0.5;entryY=0;entryDx=0;entryDy=0;shape=link;" parent="G2qe3NF_fQgNYZd1ESjh-17" source="9AVNeTMM8HrBvIerpo5E-2" target="9AVNeTMM8HrBvIerpo5E-5" edge="1">
          <mxGeometry relative="1" as="geometry" />
        </mxCell>
        <mxCell id="9AVNeTMM8HrBvIerpo5E-2" value="Species database&lt;div&gt;17 species of Arthropoda&amp;nbsp;&lt;/div&gt;" style="rounded=1;whiteSpace=wrap;html=1;" parent="G2qe3NF_fQgNYZd1ESjh-17" vertex="1">
          <mxGeometry x="82.56551724137931" y="41" width="120.82758620689656" height="60" as="geometry" />
        </mxCell>
        <mxCell id="9AVNeTMM8HrBvIerpo5E-26" style="edgeStyle=orthogonalEdgeStyle;rounded=0;orthogonalLoop=1;jettySize=auto;html=1;exitX=0.5;exitY=1;exitDx=0;exitDy=0;entryX=0.25;entryY=0;entryDx=0;entryDy=0;shape=link;" parent="G2qe3NF_fQgNYZd1ESjh-17" source="9AVNeTMM8HrBvIerpo5E-3" target="9AVNeTMM8HrBvIerpo5E-20" edge="1">
          <mxGeometry relative="1" as="geometry" />
        </mxCell>
        <mxCell id="9AVNeTMM8HrBvIerpo5E-3" value="BLAST (46 Queries of neuropeptide precursors)" style="rounded=1;whiteSpace=wrap;html=1;" parent="G2qe3NF_fQgNYZd1ESjh-17" vertex="1">
          <mxGeometry x="7.048275862068966" y="128" width="120.82758620689656" height="60" as="geometry" />
        </mxCell>
        <mxCell id="9AVNeTMM8HrBvIerpo5E-27" style="edgeStyle=orthogonalEdgeStyle;rounded=0;orthogonalLoop=1;jettySize=auto;html=1;exitX=0.5;exitY=1;exitDx=0;exitDy=0;entryX=0.75;entryY=0;entryDx=0;entryDy=0;shape=link;" parent="G2qe3NF_fQgNYZd1ESjh-17" source="9AVNeTMM8HrBvIerpo5E-5" target="9AVNeTMM8HrBvIerpo5E-20" edge="1">
          <mxGeometry relative="1" as="geometry" />
        </mxCell>
        <mxCell id="9AVNeTMM8HrBvIerpo5E-5" value="Previously annotated Neuropeptidomes" style="rounded=1;whiteSpace=wrap;html=1;" parent="G2qe3NF_fQgNYZd1ESjh-17" vertex="1">
          <mxGeometry x="161.10344827586206" y="127" width="120.82758620689656" height="60" as="geometry" />
        </mxCell>
        <mxCell id="G2qe3NF_fQgNYZd1ESjh-3" style="edgeStyle=orthogonalEdgeStyle;rounded=0;orthogonalLoop=1;jettySize=auto;html=1;exitX=0.5;exitY=1;exitDx=0;exitDy=0;entryX=0.5;entryY=0;entryDx=0;entryDy=0;shape=link;" edge="1" parent="G2qe3NF_fQgNYZd1ESjh-17" source="9AVNeTMM8HrBvIerpo5E-20" target="G2qe3NF_fQgNYZd1ESjh-1">
          <mxGeometry relative="1" as="geometry" />
        </mxCell>
        <mxCell id="9AVNeTMM8HrBvIerpo5E-20" value="Manual curation and alignment" style="rounded=1;whiteSpace=wrap;html=1;" parent="G2qe3NF_fQgNYZd1ESjh-17" vertex="1">
          <mxGeometry x="82.56551724137931" y="218" width="120.82758620689656" height="60" as="geometry" />
        </mxCell>
        <mxCell id="G2qe3NF_fQgNYZd1ESjh-1" value="HMMR model generation (46 models)" style="rounded=1;whiteSpace=wrap;html=1;movable=1;resizable=1;rotatable=1;deletable=1;editable=1;locked=0;connectable=1;" vertex="1" parent="G2qe3NF_fQgNYZd1ESjh-17">
          <mxGeometry x="82.56551724137931" y="310" width="120.82758620689656" height="60" as="geometry" />
        </mxCell>
        <mxCell id="G2qe3NF_fQgNYZd1ESjh-31" value="Model generation" style="rounded=0;whiteSpace=wrap;html=1;fillColor=#e1d5e7;strokeColor=#9673a6;" vertex="1" parent="G2qe3NF_fQgNYZd1ESjh-17">
          <mxGeometry width="292" height="30" as="geometry" />
        </mxCell>
        <mxCell id="G2qe3NF_fQgNYZd1ESjh-63" value="Trimming" style="rounded=0;whiteSpace=wrap;html=1;" vertex="1" parent="G2qe3NF_fQgNYZd1ESjh-17">
          <mxGeometry x="108.98" y="286" width="68" height="16" as="geometry" />
        </mxCell>
        <mxCell id="G2qe3NF_fQgNYZd1ESjh-49" style="edgeStyle=orthogonalEdgeStyle;rounded=0;orthogonalLoop=1;jettySize=auto;html=1;exitX=0.5;exitY=1;exitDx=0;exitDy=0;entryX=0.5;entryY=0;entryDx=0;entryDy=0;shape=link;" edge="1" parent="1" source="G2qe3NF_fQgNYZd1ESjh-22" target="G2qe3NF_fQgNYZd1ESjh-28">
          <mxGeometry relative="1" as="geometry" />
        </mxCell>
        <mxCell id="G2qe3NF_fQgNYZd1ESjh-22" value="46 models used for mining already known neuropeptidomes" style="rounded=1;whiteSpace=wrap;html=1;container=0;" vertex="1" parent="1">
          <mxGeometry x="469" y="45" width="120" height="60" as="geometry" />
        </mxCell>
        <mxCell id="G2qe3NF_fQgNYZd1ESjh-50" style="edgeStyle=orthogonalEdgeStyle;rounded=0;orthogonalLoop=1;jettySize=auto;html=1;exitX=0.5;exitY=1;exitDx=0;exitDy=0;" edge="1" parent="1" source="G2qe3NF_fQgNYZd1ESjh-28" target="G2qe3NF_fQgNYZd1ESjh-29">
          <mxGeometry relative="1" as="geometry" />
        </mxCell>
        <mxCell id="G2qe3NF_fQgNYZd1ESjh-51" style="edgeStyle=orthogonalEdgeStyle;rounded=0;orthogonalLoop=1;jettySize=auto;html=1;exitX=0.5;exitY=1;exitDx=0;exitDy=0;entryX=0.5;entryY=0;entryDx=0;entryDy=0;" edge="1" parent="1" source="G2qe3NF_fQgNYZd1ESjh-28" target="G2qe3NF_fQgNYZd1ESjh-40">
          <mxGeometry relative="1" as="geometry" />
        </mxCell>
        <mxCell id="G2qe3NF_fQgNYZd1ESjh-28" value="Did model produce satisfactory results?" style="rounded=1;whiteSpace=wrap;html=1;container=0;" vertex="1" parent="1">
          <mxGeometry x="469" y="120" width="120" height="52" as="geometry" />
        </mxCell>
        <mxCell id="G2qe3NF_fQgNYZd1ESjh-56" style="edgeStyle=orthogonalEdgeStyle;rounded=0;orthogonalLoop=1;jettySize=auto;html=1;exitX=0;exitY=0.5;exitDx=0;exitDy=0;entryX=0;entryY=0.5;entryDx=0;entryDy=0;" edge="1" parent="1" source="G2qe3NF_fQgNYZd1ESjh-29" target="G2qe3NF_fQgNYZd1ESjh-22">
          <mxGeometry relative="1" as="geometry">
            <Array as="points">
              <mxPoint x="390" y="234" />
              <mxPoint x="390" y="75" />
            </Array>
          </mxGeometry>
        </mxCell>
        <mxCell id="G2qe3NF_fQgNYZd1ESjh-29" value="Regenerate models by re-alignment and reducing trimming" style="rounded=1;whiteSpace=wrap;html=1;container=0;fillColor=#f8cecc;strokeColor=#b85450;" vertex="1" parent="1">
          <mxGeometry x="399" y="204" width="120" height="60" as="geometry" />
        </mxCell>
        <mxCell id="G2qe3NF_fQgNYZd1ESjh-33" value="Model validation and optimization" style="rounded=0;whiteSpace=wrap;html=1;fillColor=#d5e8d4;strokeColor=#82b366;container=0;" vertex="1" parent="1">
          <mxGeometry x="380" y="4" width="300" height="30" as="geometry" />
        </mxCell>
        <mxCell id="G2qe3NF_fQgNYZd1ESjh-40" value="Keep model in database" style="rounded=1;whiteSpace=wrap;html=1;container=0;fillColor=#d5e8d4;strokeColor=#82b366;" vertex="1" parent="1">
          <mxGeometry x="539" y="204" width="120" height="60" as="geometry" />
        </mxCell>
        <mxCell id="G2qe3NF_fQgNYZd1ESjh-47" value="&lt;font color=&quot;#006600&quot;&gt;Yes&lt;/font&gt;" style="shape=process;whiteSpace=wrap;html=1;backgroundOutline=1;" vertex="1" parent="1">
          <mxGeometry x="594" y="172" width="48" height="20" as="geometry" />
        </mxCell>
        <mxCell id="G2qe3NF_fQgNYZd1ESjh-53" value="&lt;font color=&quot;#ff0000&quot;&gt;No&lt;/font&gt;" style="shape=process;whiteSpace=wrap;html=1;backgroundOutline=1;" vertex="1" parent="1">
          <mxGeometry x="416" y="172" width="48" height="20" as="geometry" />
        </mxCell>
        <mxCell id="G2qe3NF_fQgNYZd1ESjh-57" value="Test in species without known neuropeptidomes" style="rounded=1;whiteSpace=wrap;html=1;" vertex="1" parent="1">
          <mxGeometry x="450" y="290" width="160" height="30" as="geometry" />
        </mxCell>
        <mxCell id="G2qe3NF_fQgNYZd1ESjh-68" style="edgeStyle=orthogonalEdgeStyle;rounded=0;orthogonalLoop=1;jettySize=auto;html=1;entryX=0.5;entryY=1;entryDx=0;entryDy=0;shape=link;" edge="1" parent="1" target="G2qe3NF_fQgNYZd1ESjh-57">
          <mxGeometry relative="1" as="geometry">
            <mxPoint x="530" y="350" as="sourcePoint" />
          </mxGeometry>
        </mxCell>
        <mxCell id="G2qe3NF_fQgNYZd1ESjh-61" value="Use models for NeuroHMMR" style="shape=process;whiteSpace=wrap;html=1;backgroundOutline=1;fillColor=#dae8fc;strokeColor=#6c8ebf;" vertex="1" parent="1">
          <mxGeometry x="398" y="340" width="261" height="24" as="geometry" />
        </mxCell>
        <mxCell id="G2qe3NF_fQgNYZd1ESjh-66" style="edgeStyle=orthogonalEdgeStyle;rounded=0;orthogonalLoop=1;jettySize=auto;html=1;exitX=0.5;exitY=1;exitDx=0;exitDy=0;entryX=0.526;entryY=0.012;entryDx=0;entryDy=0;entryPerimeter=0;" edge="1" parent="1" source="G2qe3NF_fQgNYZd1ESjh-40" target="G2qe3NF_fQgNYZd1ESjh-57">
          <mxGeometry relative="1" as="geometry">
            <Array as="points">
              <mxPoint x="599" y="280" />
              <mxPoint x="534" y="280" />
            </Array>
          </mxGeometry>
        </mxCell>
        <mxCell id="G2qe3NF_fQgNYZd1ESjh-70" value="Re-test" style="rounded=0;whiteSpace=wrap;html=1;" vertex="1" parent="1">
          <mxGeometry x="384" y="120" width="60" height="20" as="geometry" />
        </mxCell>
      </root>
    </mxGraphModel>
  </diagram>
</mxfile>
